HIERARCHY
ROOT pelvis
{
  OFFSET 0 100 0
  CHANNELS 6 Xposition Yposition Zposition Zrotation Xrotation Yrotation
  JOINT pelvis_right_femur
  {
    OFFSET -10.78128 -3.44521 -0.5502486
    CHANNELS 3 Zrotation Xrotation Yrotation
    JOINT right_femur_tibia
    {
      OFFSET -0.8047443 -44.0398 -0.1307829
      CHANNELS 3 Zrotation Xrotation Yrotation
      JOINT right_tibia_foot
      {
        OFFSET 3.006224 -47.83518 -5
        CHANNELS 3 Zrotation Xrotation Yrotation
        End Site
        {
          OFFSET 0 -5 15
        }
      }
    }
  }
  JOINT pelvis_left_femur
  {
    OFFSET 10.78128 -3.44521 -0.5502486
    CHANNELS 3 Zrotation Xrotation Yrotation
    JOINT left_femur_tibia
    {
      OFFSET 0.8047443 -44.0398 -0.1307829
      CHANNELS 3 Zrotation Xrotation Yrotation
      JOINT left_tibia_foot
      {
        OFFSET -4.370144 -48.10324 -4.275266
        CHANNELS 3 Zrotation Xrotation Yrotation
        End Site
        {
          OFFSET 0 -5 15
        }
      }
    }
  }
  JOINT pelvis_spine1
  {
    OFFSET 0 6.468898 -3.129235
    CHANNELS 3 Zrotation Xrotation Yrotation
    JOINT spine1
    {
      OFFSET 0 23.15396 4.99043
      CHANNELS 3 Zrotation Xrotation Yrotation
      JOINT spine2
      {
        OFFSET 0 20.79997 -5.064912
        CHANNELS 3 Zrotation Xrotation Yrotation
        JOINT neck
        {
          OFFSET 0 14.38658 9.616178
          CHANNELS 3 Zrotation Xrotation Yrotation
          End Site
          {
            OFFSET 0 20 0
          }
        }
      }
      JOINT right_manubrium
      {
        OFFSET -5.722621 16.35077 3.967754
        CHANNELS 3 Zrotation Xrotation Yrotation
        JOINT right_clavicle
        {
          OFFSET -13.16364 1.694482 -4.693211
          CHANNELS 3 Zrotation Xrotation Yrotation
          JOINT right_humerus
          {
            OFFSET -28.5034 -0.3100689 -2.792744
            CHANNELS 3 Zrotation Xrotation Yrotation
            JOINT right_radius
            {
              OFFSET -25.15693 0.02248979 -1.271978
              CHANNELS 3 Zrotation Xrotation Yrotation
              End Site
              {
                OFFSET -15 0 0
              }
            }
          }
        }
      }
      JOINT left_manubrium
      {
        OFFSET 5.722621 16.35077 3.967754
        CHANNELS 3 Zrotation Xrotation Yrotation
        JOINT left_clavicle
        {
          OFFSET 13.16364 1.694482 -4.693211
          CHANNELS 3 Zrotation Xrotation Yrotation
          JOINT left_humerus
          {
            OFFSET 29.39168 -1.063119 -2.237045
            CHANNELS 3 Zrotation Xrotation Yrotation
            JOINT left_radius
            {
              OFFSET 24.59957 -0.9528479 0.9047498
              CHANNELS 3 Zrotation Xrotation Yrotation
              End Site
              {
                OFFSET 15 -0 -0
              }
            }
          }
        }
      }
    }
  }
}
MOTION
Frames: 11
Frame Time: 0.0416666666667
0 103.5113 0 1.60599 -3.055823 0.05176079 2.238602 -12.11132 7.113347 -0 37.52008 -0 -5.77624 -15.93201 -5.250645 -6.582283 14.13995 -23.62056 -0 5.865437 -0 -1.068989 -20.5904 22.70432 -4.056993 -3.619508 3.253193 2.108799 8.170923 -8.13463 0.4894428 23.78183 7.536367 3.823181 -21.59663 7.808634 6.330335 -18.83279 11.16201 87.08702 35.01127 -22.50624 -0 0 14.96445 -9.473866 8.406031 5.237383 4.042766 -19.20476 -3.814806 -99.2463 40.91475 26.96714 0 0 -20.18237 -12.53921 16.5209 27.96156
0.1211635 103.8548 1.457464 1.548866 -2.80724 0.07558316 2.229112 -12.6841 6.990836 -0 38.00577 -0 -5.728803 -15.31371 -5.092921 -6.628552 13.76467 -23.26455 -0 5.726493 -0 -0.8465454 -20.46412 22.42434 -4.052198 -3.519083 3.268416 2.13071 8.291929 -8.217962 0.3906569 23.59574 7.673865 3.86089 -21.81857 7.83511 6.479627 -18.86343 11.26402 87.07188 35.45683 -22.47625 -0 0 14.91282 -9.801702 8.744933 5.535964 4.028138 -19.34384 -3.800653 -98.65455 40.33212 26.62303 0 0 -20.43569 -11.85903 16.35462 27.31679
0.274783 104.1573 3.161361 0.7992485 -1.382113 0.1651117 3.32738 -17.17913 7.17321 -0 35.47162 -0 -5.698568 -13.90469 -4.893612 -6.253159 13.37219 -22.97974 -0 6.51598 -0 -1.47872 -21.43667 21.14959 -3.540161 -2.532765 3.193661 2.413432 7.839202 -8.244549 0.5575909 22.91625 7.94158 3.994209 -23.0144 8.363776 6.571219 -18.57206 11.21612 86.65055 35.96103 -21.97016 -0 0 15.17129 -9.041456 8.929434 5.645413 4.386994 -19.12725 -3.206631 -98.50384 39.54869 26.5373 0 0 -20.19119 -10.56896 15.74313 26.47509
0.4501981 104.353 5.165817 0.232066 -0.2170472 0.3913259 4.1441 -21.03206 7.124663 -0 32.6429 -0 -5.628427 -12.33901 -4.694177 -5.941788 13.15745 -22.40506 -0 7.277809 -0 -2.090125 -22.25195 19.8647 -3.154438 -1.742594 3.121659 2.630126 7.52901 -8.309273 0.680611 22.32619 8.171414 4.131551 -23.907 8.747536 6.578972 -18.25763 11.17296 86.46747 36.32937 -21.74583 -0 0 15.14152 -8.803527 9.275785 5.854281 4.743944 -19.15153 -2.796949 -97.82895 38.68636 25.87695 0 0 -20.45552 -9.322841 15.17827 25.52028
0.6459894 104.3895 7.631685 -0.2938593 0.9421933 0.7626636 4.79272 -25.2667 6.716353 -0 28.83741 -0 -5.448809 -10.06146 -4.471191 -5.602253 13.07493 -21.23449 -0 8.148117 -0 -2.899488 -23.08162 18.1184 -2.793358 -0.9387977 3.020386 2.817411 7.324422 -8.453225 0.7717945 21.65655 8.436475 4.295826 -24.6628 9.061835 6.496408 -17.82273 11.13283 86.53502 36.64438 -21.80201 -0 0 14.76945 -9.241046 10.00024 6.309617 5.18988 -19.48504 -2.514843 -96.28828 37.41801 24.31773 0 0 -21.44204 -7.780137 14.42422 24.18738
0.8489025 104.1769 10.72906 -0.6914134 1.877963 1.269675 5.078054 -29.41143 5.843394 -0 23.9982 -0 -5.124577 -7.275305 -4.32083 -5.243542 13.3433 -19.43032 -0 9.064881 -0 -3.837681 -23.7756 16.06504 -2.500446 -0.2471277 2.877769 2.936175 7.267858 -8.668259 0.8461125 21.00143 8.661176 4.429461 -25.05761 9.245024 6.2373 -17.24001 11.06711 86.96335 36.69656 -22.2283 -0 0 13.94382 -10.4962 11.07103 6.99137 5.728403 -20.1714 -2.428872 -93.79797 35.65894 21.64807 0 0 -23.22094 -5.950747 13.53952 22.36935
1.036455 103.6211 14.63997 -0.8887579 2.392898 1.867844 4.834685 -32.96809 4.433894 -0 18.19033 -0 -4.592425 -4.249813 -4.369528 -4.877117 14.18017 -16.9791 -0 10.02507 -0 -4.860402 -24.13023 13.85559 -2.290503 0.2094975 2.678249 2.952773 7.390321 -8.947505 0.9155675 20.44226 8.773223 4.465119 -24.88507 9.245476 5.734891 -16.48169 10.95094 87.83074 36.28781 -23.08584 -0 0 12.59007 -12.66946 12.45368 7.890834 6.338616 -21.21639 -2.592314 -90.42518 33.29149 17.80025 0 0 -25.79494 -3.889644 12.53896 20.03411
1.183313 102.6827 19.51159 -0.8423763 2.299316 2.482922 4.059642 -35.19143 2.656611 -0 12.13041 -0 -3.808578 -1.531121 -4.754059 -4.539973 15.69334 -14.0591 -0 11.12033 -0 -5.832727 -23.79903 11.80104 -2.14067 0.2965396 2.414269 2.84559 7.702945 -9.258459 0.9859907 20.07217 8.697924 4.324359 -24.00744 9.044455 4.990146 -15.57316 10.77885 89.08944 35.28281 -24.286 -0 0 10.77049 -15.61587 14.00825 8.93969 6.923622 -22.48783 -3.010783 -86.58934 30.2796 13.10174 0 0 -28.84425 -1.717488 11.45983 17.2653
1.273323 101.475 25.37838 -0.6295843 1.563223 3.028469 3.1842 -35.35456 1.177111 -0 7.375138 -0 -2.833964 0.1060917 -5.532695 -4.249027 17.65634 -11.18311 -0 12.79578 -0 -6.613186 -22.36929 10.31383 -1.94532 -0.02997963 2.107953 2.638926 8.143699 -9.522233 1.062677 19.94603 8.401999 3.963492 -22.54948 8.716834 4.153441 -14.62713 10.58083 90.457 33.77474 -25.49072 -0 0 8.818508 -18.67764 15.45716 9.924311 7.292738 -23.60979 -3.568804 -83.14822 26.97281 8.510438 0 0 -31.50459 0.304134 10.36996 14.45251
1.309206 100.3373 32.07679 -0.484093 0.4323151 3.419262 2.973059 -33.23076 0.9599807 -0 5.893512 -0 -1.930016 0.07976323 -6.541415 -3.942273 19.30695 -9.140747 -0 16.10655 -0 -7.176112 -19.59219 9.707236 -1.543148 -0.6059669 1.852382 2.423223 8.573935 -9.616822 1.151273 20.02423 7.948495 3.436539 -21.03654 8.432171 3.558212 -13.84061 10.43618 91.45067 32.23535 -26.18784 -0 0 7.312223 -20.69976 16.46438 10.48208 7.222828 -24.03079 -4.005259 -81.0718 24.2556 5.445147 0 0 -32.50857 1.821957 9.383658 12.28858
1.308808 99.74319 39.23895 -0.6052142 -0.687705 3.578262 3.779608 -29.35124 2.348859 -0 8.518607 -0 -1.443351 -1.328578 -7.399007 -3.559565 19.55847 -8.480708 -0 22.47043 -0 -7.660031 -15.74232 9.957261 -0.8941936 -1.078108 1.828966 2.304545 8.893243 -9.435586 1.257032 20.19587 7.485246 2.925005 -20.12812 8.315194 3.557623 -13.38588 10.45391 91.67218 31.32273 -26.04098 -0 0 6.695131 -20.80283 16.8521 10.35736 6.625005 -23.44382 -4.066701 -80.86349 23.01464 4.983029 0 0 -31.08659 2.56669 8.636683 11.39591
